<?xml version="1.0" encoding="utf-8"?>
<!-- Generator: Adobe Illustrator 24.3.0, SVG Export Plug-In . SVG Version: 6.00 Build 0)  -->
<svg version="1.1" id="Layer_1" xmlns="http://www.w3.org/2000/svg" xmlns:xlink="http://www.w3.org/1999/xlink" x="0px" y="0px"
	 viewBox="0 0 595.28 841.89" style="enable-background:new 0 0 595.28 841.89;" xml:space="preserve">
<style type="text/css">
	.st0{fill:none;}
	.st1{fill:#534596;}
	.st2{fill:#FFFEF6;}
</style>
<g>
	<g>
		<path d="M600.93,729.45c-13,0-24-1-37-2c-73-5-112-24-156-86c-37-51-73-114-105-165c-20-32-33-38-84-38h-35v157c0,85,11,90,91,98
			v28h-267v-28c83-9,90-13,90-98v-399c0-85-11-88-90-97v-28h255c73,0,122,9,160,34c41,26,68,71,68,132c0,86-55,140-129,172
			c18,31,61,98,91,143c37,53,56,78,79,103c27,29,50,40,73,46L600.93,729.45z M231.93,404.45c52,0,85-8,110-29c39-29,55-69,55-123
			c0-107-71-146-148-146c-29,0-46,4-53,10c-9,7-12,17-12,43v245H231.93z"/>
	</g>
</g>
<rect x="183.13" y="141.66" class="st0" width="50.51" height="0"/>
<polyline class="st1" points="7.93,83.07 7.93,99.45 53.84,107.31 82.12,117.41 98.28,149.74 98.28,201.25 98.28,239.64 
	98.28,278.02 98.28,311.35 93.23,345.7 98.28,582.06 94.24,653.78 84.14,674.99 72.02,681.05 45.76,687.11 7.93,693.45 7.93,721.45 
	280.1,721.45 274.93,693.45 208.38,688.12 183.13,655.8 183.13,573.98 183.93,438.45 218.93,438.45 263.94,444.69 327.58,520.44 
	394.24,613.37 456.87,698.22 570,729.45 595.28,729.45 595.28,698.22 542.73,670.95 480.1,600.24 356.87,410.34 400.3,392.16 
	471.01,322.46 490.93,237.45 467.98,149.74 422.93,105.45 364.95,83.07 288.18,76 219.49,76 164.95,76 71.01,76 28.59,76 21.52,76 
	7.93,71.45 "/>
<path class="st2" d="M163.38,155.42c-0.3,1.59-0.45,3.21-0.45,4.83v2.61v96.97v69.7v22.41c0,14.4,11.67,26.07,26.07,26.07h28.48
	h45.04c2.89,0,5.75-0.48,8.48-1.42l65.83-22.65c5.99-2.06,11.03-6.24,14.17-11.74l25.67-45.05c2.24-3.93,3.42-8.38,3.42-12.91
	v-60.34c0-2.3-0.3-4.59-0.9-6.8l-10.33-38.22c-1.4-5.17-4.35-9.78-8.46-13.21l-34.81-29.07c-4.69-3.92-10.6-6.06-16.71-6.06h-82.15
	h-37.05h0c-12.54,0-23.3,8.92-25.62,21.24L163.38,155.42z"/>
<path class="st1" d="M111.41,91.15"/>
</svg>
